<svg width="32" height="32" viewBox="0 0 32 32" fill="none" xmlns="http://www.w3.org/2000/svg">
<rect width="32" height="32" rx="16" fill="#34D399" fill-opacity="0.1"/>
<path d="M6.83333 24.3334V14.1042C6.58333 13.9515 6.38194 13.7536 6.22917 13.5105C6.07639 13.2674 6 12.9862 6 12.6667C6 12.3473 6.16667 11.9584 6.5 11.5001C6.83333 11.0417 7.22222 10.5973 7.66667 10.1667C8.11111 10.5973 8.5 11.0417 8.83333 11.5001C9.16667 11.9584 9.33333 12.3473 9.33333 12.6667C9.33333 12.9862 9.25694 13.2674 9.10417 13.5105C8.95139 13.7536 8.75 13.9515 8.5 14.1042V17.6667H10.1667V16.0001C10.1667 15.6529 10.2778 15.3195 10.5 15.0001C10.7222 14.6806 11.0417 14.4723 11.4583 14.3751C11.3056 14.139 11.191 13.882 11.1146 13.6042C11.0382 13.3265 11 13.0417 11 12.7501C11 12.1945 11.1319 11.6806 11.3958 11.2084C11.6597 10.7362 12.0139 10.3473 12.4583 10.0417L16 7.66675L19.5417 10.0417C19.9861 10.3473 20.3403 10.7362 20.6042 11.2084C20.8681 11.6806 21 12.1945 21 12.7501C21 13.0417 20.9618 13.3265 20.8854 13.6042C20.809 13.882 20.6944 14.139 20.5417 14.3751C20.9583 14.4723 21.2778 14.6806 21.5 15.0001C21.7222 15.3195 21.8333 15.6529 21.8333 16.0001V17.6667H23.5V14.1042C23.25 13.9515 23.0486 13.7536 22.8958 13.5105C22.7431 13.2674 22.6667 12.9862 22.6667 12.6667C22.6667 12.3473 22.8333 11.9584 23.1667 11.5001C23.5 11.0417 23.8889 10.5973 24.3333 10.1667C24.7778 10.5973 25.1667 11.0417 25.5 11.5001C25.8333 11.9584 26 12.3473 26 12.6667C26 12.9862 25.9236 13.2674 25.7708 13.5105C25.6181 13.7536 25.4167 13.9515 25.1667 14.1042V24.3334H16.8333V21.0001C16.8333 20.764 16.7535 20.5661 16.5938 20.4063C16.434 20.2466 16.2361 20.1667 16 20.1667C15.7639 20.1667 15.566 20.2466 15.4062 20.4063C15.2465 20.5661 15.1667 20.764 15.1667 21.0001V24.3334H6.83333ZM14.25 14.3334H17.75C18.1944 14.3334 18.5694 14.1806 18.875 13.8751C19.1806 13.5695 19.3333 13.1945 19.3333 12.7501C19.3333 12.4723 19.2708 12.2188 19.1458 11.9897C19.0208 11.7605 18.8472 11.5695 18.625 11.4167L16 9.66675L13.375 11.4167C13.1528 11.5695 12.9792 11.7605 12.8542 11.9897C12.7292 12.2188 12.6667 12.4723 12.6667 12.7501C12.6667 13.1945 12.8194 13.5695 13.125 13.8751C13.4306 14.1806 13.8056 14.3334 14.25 14.3334ZM8.5 22.6667H13.5V21.0001C13.5 20.3056 13.7431 19.7154 14.2292 19.2292C14.7153 18.7431 15.3056 18.5001 16 18.5001C16.6944 18.5001 17.2847 18.7431 17.7708 19.2292C18.2569 19.7154 18.5 20.3056 18.5 21.0001V22.6667H23.5V19.3334H20.1667V16.0001H11.8333V19.3334H8.5V22.6667Z" fill="#34D399"/>
</svg>
